<svg width="24" height="25" viewBox="0 0 24 25" fill="none" xmlns="http://www.w3.org/2000/svg">
<path d="M21 16.4644V20.0005C21 20.5255 20.5941 20.9611 20.0705 20.9981C19.6331 21.029 19.2763 21.0444 19 21.0444C10.1634 21.0444 3 13.881 3 5.04443C3 4.76814 3.01545 4.4113 3.04635 3.97393C3.08337 3.45031 3.51894 3.04443 4.04386 3.04443H7.5801C7.83678 3.04443 8.05176 3.23885 8.07753 3.49423C8.10067 3.7235 8.12218 3.90757 8.14207 4.04645C8.34435 5.45915 8.75753 6.80379 9.3487 8.04746C9.44359 8.24708 9.38171 8.48602 9.20185 8.61449L7.04355 10.1562C8.35752 13.2255 10.8189 15.6869 13.8882 17.0009L15.4271 14.8463C15.5572 14.6643 15.799 14.6017 16.001 14.6976C17.2446 15.2883 18.5891 15.701 20.0016 15.9028C20.1396 15.9226 20.3225 15.9439 20.5502 15.9669C20.8056 15.9927 21 16.2077 21 16.4644Z" fill="#1E3A5F"/>
</svg>
