<svg width="44" height="45" viewBox="0 0 44 45" fill="none" xmlns="http://www.w3.org/2000/svg">
<g filter="url(#filter0_d_816_223)">
<rect x="2" y="0.522461" width="40" height="40" rx="20" fill="white"/>
<g clip-path="url(#clip0_816_223)">
<path d="M34 20.5225C34 13.895 28.6274 8.52246 22 8.52246C15.3726 8.52246 10 13.895 10 20.5225C10 26.512 14.3882 31.4764 20.125 32.3766V23.9912H17.0781V20.5225H20.125V17.8787C20.125 14.8712 21.9165 13.21 24.6576 13.21C25.9705 13.21 27.3438 13.4443 27.3438 13.4443V16.3975H25.8306C24.3399 16.3975 23.875 17.3225 23.875 18.2715V20.5225H27.2031L26.6711 23.9912H23.875V32.3766C29.6118 31.4764 34 26.512 34 20.5225Z" fill="#1E3A5F"/>
<path d="M26.6711 23.9912L27.2031 20.5225H23.875V18.2715C23.875 17.3225 24.3399 16.3975 25.8306 16.3975H27.3438V13.4443C27.3438 13.4443 25.9705 13.21 24.6576 13.21C21.9165 13.21 20.125 14.8712 20.125 17.8787V20.5225H17.0781V23.9912H20.125V32.3766C21.3674 32.5711 22.6326 32.5711 23.875 32.3766V23.9912H26.6711Z" fill="white"/>
</g>
</g>
<defs>
<filter id="filter0_d_816_223" x="0" y="0.522461" width="44" height="44" filterUnits="userSpaceOnUse" color-interpolation-filters="sRGB">
<feFlood flood-opacity="0" result="BackgroundImageFix"/>
<feColorMatrix in="SourceAlpha" type="matrix" values="0 0 0 0 0 0 0 0 0 0 0 0 0 0 0 0 0 0 127 0" result="hardAlpha"/>
<feMorphology radius="0.5" operator="dilate" in="SourceAlpha" result="effect1_dropShadow_816_223"/>
<feOffset dy="2"/>
<feGaussianBlur stdDeviation="0.75"/>
<feComposite in2="hardAlpha" operator="out"/>
<feColorMatrix type="matrix" values="0 0 0 0 0.584314 0 0 0 0 0.627451 0 0 0 0 0.698039 0 0 0 0.16 0"/>
<feBlend mode="normal" in2="BackgroundImageFix" result="effect1_dropShadow_816_223"/>
<feBlend mode="normal" in="SourceGraphic" in2="effect1_dropShadow_816_223" result="shape"/>
</filter>
<clipPath id="clip0_816_223">
<rect width="24" height="24" fill="white" transform="translate(10 8.52246)"/>
</clipPath>
</defs>
</svg>
